<svg xmlns="http://www.w3.org/2000/svg" fill="none" viewBox="0 0 40 40">
    <path fill="#0F3F9E" fill-rule="evenodd" d="M3.357 18.761c1.01.401 1.53.892 1.305 2.089v-.004c-1.175-.421-2.346-.663-3.583-.389-1.03.228-1.3.68-.86 1.652.999 2.206 2.76 3.396 5.134 3.544.875.055 1.239.445 1.6 1.107.29.536.189.682-.388.625-1.325-.132-2.525.228-3.635.933-.952.607-1.01 1.155-.181 1.888 1.917 1.698 4.087 2.07 6.447 1.123.598-.238.936-.191 1.37.289 1.906 2.1 4.108 3.848 6.544 5.3.041.025.087.046.134.068.187.088.389.183.376.505l-.255.079c-.194.06-.388.12-.583.176-1.641.47-3.322.589-5.018.586-.55-.002-1.077.043-1.087.833-.011.787.47.8 1.03.817l.03.001c2.556.082 5.02-.381 7.394-1.295.63-.242 1.16-.221 1.782.016 2.406.918 4.9 1.374 7.486 1.281.538-.019.919-.105.929-.772.009-.627-.308-.851-.863-.873-.277-.01-.554-.014-.83-.018-.555-.008-1.109-.015-1.658-.072-1.24-.128-2.476-.31-3.752-.874.116-.079.214-.147.301-.209.156-.108.277-.193.405-.27 2.41-1.438 4.59-3.164 6.476-5.244.457-.505.815-.55 1.442-.302 2.289.902 4.417.573 6.303-1.056.955-.824.895-1.386-.2-2.05-1.072-.65-2.22-.962-3.48-.872a.967.967 0 0 0-.142.026c-.204.047-.457.105-.443-.283.019-.596.898-1.365 1.553-1.413 2.448-.178 4.282-1.29 5.332-3.556.467-1.01.186-1.451-.9-1.695-1.233-.276-2.39.029-3.552.383-.135-1.054.167-1.639 1.215-2.028 2.147-.793 3.505-3.036 3.464-5.33-.018-1.029-.39-1.325-1.401-1.108-1.224.264-2.273.83-3.136 1.748a1.113 1.113 0 0 0-.082.106c-.123.17-.273.38-.518.049-.47-.632-.365-1.557.194-2.123 1.396-1.414 2.063-3.095 1.752-5.085-.017-.11-.032-.226-.047-.343-.098-.762-.207-1.609-1.021-1.834-.802-.224-1.367.39-1.891.959-.1.108-.197.214-.295.313-.628.635-.96 1.456-1.284 2.262l-.094.232c-.866-.586-.946-1.214-.616-2.166.79-2.271.205-4.318-1.448-6.056-.451-.471-.935-.615-1.458-.083-1.752 1.776-1.644 5.649.206 7.285 4.689 4.144 6.248 10.404 3.792 16.179-2.407 5.657-6.634 9.666-12.04 12.49-.52.273-.954.135-1.425-.105-4.03-2.046-7.25-5.012-9.84-8.682-1.906-2.7-3.152-5.683-3.13-9.019.03-4.368 1.665-8.084 5.043-10.948a3.13 3.13 0 0 0 .955-1.364c.683-1.908.507-3.731-.58-5.448-.578-.91-1.12-.977-1.84-.196-1.6 1.737-2.135 3.774-1.336 6.002.346.97.17 1.563-.654 2.129-.472-1.454-1.224-2.7-2.532-3.537-.873-.559-1.321-.422-1.72.525-.89 2.116-.428 4.728 1.262 6.322.653.618.748 1.136.458 1.928-.22.598-.365.653-.782.182-.858-.97-1.97-1.504-3.225-1.75-.85-.167-1.22.145-1.26 1.015-.105 2.26 1.23 4.565 3.35 5.405ZM9.92 5.83c-.36-1.23-.174-2.372.623-3.592v-.002c.669 1.367.522 2.521-.013 3.665-.074.16-.192.351-.39.283-.103-.034-.18-.22-.22-.354Zm19.908-2.988c.298.605.45 1.272.44 1.946a4.581 4.581 0 0 0-.031.36c-.028.443-.06.962-.391.977-.453.022-.551-.468-.644-.933-.028-.14-.056-.277-.092-.397-.198-.65-.098-1.288.063-1.92.04-.158.143-.388.264-.422.217-.061.285.12.346.28.015.039.03.076.045.109ZM7.21 30.207l-.267.052-.002.002c-.762-.068-1.422-.202-2.035-.513l-.056-.028c-.142-.069-.307-.149-.244-.337.034-.103.22-.18.354-.222 1.062-.349 2.09-.212 3.082.263l.067.03c.141.063.3.133.283.311-.017.19-.207.234-.364.27l-.04.01c-.266.064-.536.116-.778.162Zm28.39-.779c-1.382-.686-2.556-.529-3.718.035l-.02.01c-.126.06-.268.129-.253.293.015.158.163.203.29.242l.034.01c1.256.413 2.416.196 3.668-.59ZM5.398 7.46c.8.983.967 2.117.789 3.583h-.002C5.116 9.986 4.719 8.897 4.756 7.63v-.038c.005-.167.01-.352.212-.397.184-.041.298.102.4.23l.029.035Zm29.853.386c-.018 1.166-.397 2.182-1.394 3.154v-.002c-.247-1.363-.047-2.449.666-3.428.017-.023.034-.047.05-.072.12-.172.258-.372.497-.284.223.083.205.303.189.502a2.047 2.047 0 0 0-.008.13ZM2.32 14.427c1.11.637 1.813 1.57 2.12 3.046-1.394-.588-2.192-1.471-2.617-2.709a2.533 2.533 0 0 0-.017-.045c-.046-.128-.098-.27.026-.365.154-.12.317-.025.46.057l.029.016Zm33.246 3.024c1.423-.553 2.2-1.474 2.635-2.73.048-.14.109-.324-.058-.388-.114-.043-.298.009-.417.076-1.14.637-1.85 1.586-2.16 3.042ZM2.518 22.01a.517.517 0 0 0 .163-.013c1.007.16 1.883.561 2.592 1.287.14.146.282.335.172.557-.12.239-.36.189-.553.146-.98-.221-1.84-.66-2.49-1.447-.088-.105-.194-.271-.168-.379.039-.157.161-.154.284-.151Zm34.824.005c.386-.039.457.032.443.287h.002l-.068.09c-.051.072-.11.152-.174.226-.622.714-1.423 1.118-2.323 1.348l-.034.008c-.216.054-.465.117-.611-.113-.154-.246.032-.459.196-.618.717-.692 1.57-1.128 2.569-1.228Z" clip-rule="evenodd"/><path fill="#0F3F9E" d="m30.26 20-7.487-2.77-2.77-7.486-2.77 7.487-7.487 2.77 7.487 2.77 2.77 7.487 2.77-7.487L30.26 20Z"/>
    </svg>