<svg xmlns="http://www.w3.org/2000/svg" width="188" height="67" fill="none"><path fill="#fff" d="M25.665 41.181V13.553c0-6.84-5.544-12.384-12.384-12.384H2.686l.74.745a18.924 18.924 0 0 1 5.503 13.34v26.882c0 6.84 5.545 12.384 12.385 12.384h10.65c-4.195-3.297-6.299-8.34-6.299-13.339Z"/><path fill="url(#a)" d="M34.587 16.904a7.718 7.718 0 0 0-7.719 7.719H46.74a7.718 7.718 0 0 0 7.72-7.719H34.587Z"/><path fill="url(#b)" d="M0 16.955h7.984v7.673h-.776A7.212 7.212 0 0 1 0 17.42v-.465Z"/><path fill="#fff" d="M28.914 45.462H38.95a9.006 9.006 0 0 1 9.005 9.005H36.404c-3.957 0-7.994-5.503-8.525-9.005h1.035Z"/><path fill="#D1F203" d="M2.367 1.169s6.492 5.045 6.492 13.45c0 1.192.063 2.11.063 3.055 0 7.982 7.712 7.197 16.86 7.197l-.158-11.634c-.09-6.714-5.537-12.12-12.25-12.156-5.45-.03-11.007-.03-11.007.09V1.17Z"/><path fill="#fff" d="M60.591 0h-1.478v67h1.478V0ZM92.592 13.534l-3.302 4.631h3.482l3.826-4.631h-4.006ZM73.282 18.599V36.44h4.513V18.6h6.245v-3.721H67.051v3.72h6.231Z"/><path fill="#fff" fill-rule="evenodd" d="M89.648 26.997c-3.99.239-6.231 1.926-6.231 4.841l-.002.002c0 2.884 2.315 4.856 5.364 4.856 2.004 0 3.991-1 4.887-2.705h.09v2.45h4.215V25.426c0-3.23-2.542-5.35-6.784-5.35s-6.888 2.138-7.052 5.245h3.989c.21-1.181 1.225-1.987 2.868-1.987 1.644 0 2.691.867 2.691 2.362v1.062l-4.035.238Zm4.035 2.404v1.166h.002c0 1.734-1.57 2.973-3.467 2.973-1.48 0-2.467-.747-2.467-1.943 0-1.135.926-1.868 2.555-1.987l3.377-.21Z" clip-rule="evenodd"/><path fill="#fff" d="M102.308 20.423h4.215v2.854h.09c.852-1.988 2.54-3.154 5.007-3.154 3.557 0 5.559 2.243 5.559 5.993v10.327h-4.364v-9.414c0-2.092-.986-3.287-2.944-3.287s-3.197 1.434-3.197 3.51v9.19h-4.364V20.426l-.002-.002Z"/><path fill="#fff" fill-rule="evenodd" d="M128.789 42.477c-4.214 0-7.068-2.047-7.412-4.9h4.273c.344 1.106 1.6 1.868 3.258 1.868 2.258 0 3.512-1.256 3.512-3.107v-2.81h-.09c-.748 1.705-2.63 2.868-4.946 2.868-3.916 0-6.499-3.019-6.499-8.023s2.51-8.204 6.574-8.204c2.302 0 4.111 1.21 4.946 3.049h.076v-2.795h4.302v15.793c0 3.826-3.197 6.26-7.994 6.26Zm.073-18.81c2.182 0 3.572 1.852 3.572 4.735 0 2.898-1.405 4.632-3.572 4.632s-3.511-1.72-3.511-4.632 1.329-4.736 3.511-4.736ZM140.536 31.838c0-2.915 2.24-4.602 6.231-4.84l4.035-.24v-1.061c0-1.495-1.045-2.362-2.691-2.362s-2.659.806-2.868 1.987h-3.989c.163-3.107 2.81-5.245 7.052-5.245 4.242 0 6.784 2.12 6.784 5.35V36.44h-4.215v-2.45h-.09c-.896 1.705-2.883 2.706-4.887 2.706-3.049 0-5.365-1.972-5.365-4.855l.003-.003Zm10.266-1.271V29.4l-3.378.209c-1.629.12-2.554.852-2.554 1.987 0 1.196.986 1.943 2.464 1.943 1.897 0 3.468-1.24 3.468-2.973Z" clip-rule="evenodd"/><path fill="#fff" d="M163.642 20.423h-4.215V36.44h4.363v-8.95c0-2.258 1.254-3.573 3.407-3.573.628 0 1.227.105 1.585.253v-3.84a4.499 4.499 0 0 0-1.239-.163c-1.883 0-3.244 1.105-3.811 3.139h-.09v-2.883Z"/><path fill="#fff" fill-rule="evenodd" d="M171.103 31.838c0-2.915 2.24-4.602 6.231-4.84l4.035-.24v-1.061c0-1.495-1.047-2.362-2.691-2.362s-2.659.806-2.868 1.987h-3.991c.165-3.107 2.81-5.245 7.051-5.245 4.242 0 6.784 2.12 6.784 5.35V36.44h-4.215v-2.45h-.09c-.896 1.705-2.883 2.706-4.887 2.706-3.049 0-5.364-1.972-5.364-4.855l.005-.003Zm10.263-1.271V29.4l-3.377.209c-1.629.12-2.557.852-2.557 1.987 0 1.196.986 1.943 2.467 1.943 1.897 0 3.467-1.24 3.467-2.973ZM178.125 50.184c-1.709 0-2.861 1.222-2.861 3.192 0 1.963 1.159 3.192 2.861 3.192 1.702 0 2.854-1.222 2.854-3.192 0-1.97-1.144-3.192-2.854-3.192Zm0 .908c1.091 0 1.805.83 1.805 2.284 0 1.454-.714 2.284-1.805 2.284s-1.809-.83-1.809-2.284c0-1.454.718-2.284 1.809-2.284Z" clip-rule="evenodd"/><path fill="#fff" d="m178.939 47.62-1.247 1.78h.901l1.461-1.78h-1.115ZM72.837 55.64c-1.223 0-2.102-.61-2.202-1.536l-.002.002H69.56c.1 1.513 1.359 2.499 3.175 2.499 1.97 0 3.205-.981 3.205-2.547 0-1.23-.718-1.912-2.493-2.357l-.897-.239c-1.164-.302-1.638-.687-1.638-1.334 0-.838.767-1.413 1.882-1.413 1.115 0 1.858.563 1.953 1.483h1.069c-.049-1.436-1.206-2.444-2.986-2.444-1.78 0-3.026.995-3.026 2.42 0 1.164.701 1.858 2.279 2.262l1.098.285c1.152.297 1.656.743 1.656 1.466 0 .842-.843 1.454-2 1.454Z"/><path fill="#fff" fill-rule="evenodd" d="M114.727 63.447c0-1.719 1.003-2.783 2.493-2.783s2.489 1.067 2.489 2.783c0 1.717-1.003 2.784-2.489 2.784-1.485 0-2.493-1.072-2.493-2.784Zm4.069 0c0-1.268-.621-1.992-1.573-1.992s-1.578.724-1.578 1.992c0 1.269.626 1.992 1.578 1.992.952 0 1.573-.723 1.573-1.992Z" clip-rule="evenodd"/><path fill="#fff" d="m116.843 59.98 1.086-1.554h.974l-1.274 1.554h-.786ZM85.197 59.293a.56.56 0 0 1 .56-.56.56.56 0 1 1 0 1.118.56.56 0 0 1-.56-.558ZM85.304 60.757h.901v5.381h-.9v-5.382ZM71.308 60.664c1.112 0 1.93.662 1.972 1.573h-.86c-.06-.519-.482-.838-1.144-.838-.662 0-1.091.327-1.091.797 0 .372.285.62.896.776l.833.203c1.086.275 1.48.667 1.48 1.458 0 .938-.884 1.6-2.142 1.6-1.179 0-2.002-.643-2.097-1.595h.901c.097.56.523.86 1.252.86.728 0 1.18-.312 1.18-.797 0-.382-.221-.589-.827-.75l-.948-.243c-.947-.244-1.412-.73-1.412-1.464 0-.92.823-1.578 2.009-1.578l-.002-.002Z"/><path fill="#fff" fill-rule="evenodd" d="M74.06 63.447c0-1.719 1.002-2.783 2.493-2.783 1.49 0 2.488 1.066 2.488 2.783 0 1.717-1.003 2.784-2.488 2.784-1.486 0-2.494-1.072-2.494-2.784Zm4.068 0c0-1.268-.62-1.992-1.573-1.992-.952 0-1.578.724-1.578 1.992 0 1.269.626 1.992 1.578 1.992.952 0 1.573-.723 1.573-1.992Z" clip-rule="evenodd"/><path fill="#fff" d="M82.165 61.455c.792 0 1.247.483 1.376 1.067h.88c-.115-.967-.916-1.858-2.263-1.858-1.485 0-2.474 1.05-2.474 2.783 0 1.734.994 2.784 2.484 2.784 1.222 0 2.123-.755 2.262-1.827h-.884c-.156.648-.636 1.035-1.37 1.035-.931 0-1.574-.772-1.574-1.992s.63-1.992 1.563-1.992Z"/><path fill="#fff" fill-rule="evenodd" d="M89.65 60.664c-1.49 0-2.493 1.064-2.493 2.783 0 1.712 1.008 2.784 2.494 2.784 1.485 0 2.488-1.067 2.488-2.784 0-1.717-.998-2.783-2.488-2.783Zm0 .791c.953 0 1.574.724 1.574 1.992 0 1.269-.621 1.992-1.573 1.992s-1.578-.723-1.578-1.992c0-1.268.626-1.992 1.578-1.992ZM97.501 64.597c-.156.942-1.066 1.636-2.24 1.636-1.541 0-2.479-1.072-2.479-2.764 0-1.692.952-2.805 2.438-2.805 1.485 0 2.35 1.057 2.35 2.686v.34h-3.86v.052c0 1.03.606 1.707 1.573 1.707.684 0 1.186-.346 1.334-.855h.884v.003Zm-3.789-1.61h2.925c-.02-.9-.585-1.541-1.434-1.541-.85 0-1.435.647-1.49 1.541Z" clip-rule="evenodd"/><path fill="#fff" d="M100.689 61.455c.791 0 1.246.483 1.376 1.067h.879c-.115-.967-.916-1.858-2.263-1.858-1.485 0-2.474 1.05-2.474 2.783 0 1.734.994 2.784 2.484 2.784 1.223 0 2.123-.755 2.262-1.827h-.884c-.155.648-.635 1.035-1.371 1.035-.93 0-1.573-.772-1.573-1.992s.631-1.992 1.564-1.992Z"/><path fill="#fff" fill-rule="evenodd" d="M103.518 63.447c0-1.719 1.003-2.783 2.494-2.783 1.49 0 2.488 1.066 2.488 2.783 0 1.717-1.003 2.784-2.488 2.784-1.486 0-2.494-1.072-2.494-2.784Zm4.069 0c0-1.268-.621-1.992-1.573-1.992s-1.578.724-1.578 1.992c0 1.269.626 1.992 1.578 1.992.952 0 1.573-.723 1.573-1.992Z" clip-rule="evenodd"/><path fill="#fff" d="M110.258 60.757h-.849l-.003-.003v5.381h.901v-3.168c0-.908.575-1.51 1.403-1.51.828 0 1.237.478 1.237 1.347v3.334h.901v-3.492c0-1.222-.682-1.982-1.863-1.982-.833 0-1.408.373-1.707.952h-.02v-.86ZM121.467 60.757h-.85l-.002.004v5.382h.901v-3.375c0-.745.518-1.305 1.232-1.305.669 0 1.103.423 1.103 1.071v3.606h.901v-3.42c0-.729.506-1.257 1.215-1.257.708 0 1.118.433 1.118 1.169v3.508h.9v-3.715c0-1.067-.686-1.761-1.753-1.761-.757 0-1.388.382-1.687 1.025h-.02c-.233-.652-.786-1.025-1.512-1.025s-1.273.382-1.527.952h-.019v-.86ZM129.067 59.293a.56.56 0 0 1 .56-.56c.306 0 .565.248.565.56a.56.56 0 0 1-.565.558.56.56 0 0 1-.56-.558ZM129.174 60.757h.901v5.381h-.901v-5.382ZM133.506 61.455c.791 0 1.246.483 1.375 1.067h.88c-.115-.967-.916-1.858-2.263-1.858-1.485 0-2.474 1.05-2.474 2.783 0 1.734.994 2.784 2.484 2.784 1.223 0 2.123-.755 2.262-1.827h-.884c-.155.648-.635 1.035-1.371 1.035-.93 0-1.573-.772-1.573-1.992s.631-1.992 1.564-1.992Z"/><path fill="#fff" fill-rule="evenodd" d="M136.384 64.616c0-.92.708-1.5 1.95-1.573l1.542-.088v-.45c0-.658-.434-1.05-1.179-1.05-.694 0-1.127.327-1.242.855h-.869c.061-.93.86-1.646 2.133-1.646 1.274 0 2.06.684 2.06 1.753v3.721h-.855v-.925h-.021c-.322.616-1.004 1.02-1.729 1.02-1.072 0-1.79-.648-1.79-1.615v-.002Zm3.492-.523v-.439l-1.439.088c-.724.046-1.138.368-1.138.874 0 .507.429.847 1.077.847.85 0 1.5-.594 1.5-1.37ZM146.112 60.664c-1.356 0-2.282 1.096-2.282 2.783h-.002c0 1.685.932 2.784 2.303 2.784.777 0 1.393-.383 1.739-1.004h.015v.911h.859V58.67h-.901v2.96h-.019c-.319-.589-.94-.966-1.712-.966Zm.19 4.775c-.95 0-1.551-.77-1.551-1.992 0-1.215.625-1.992 1.551-1.992.925 0 1.546.787 1.546 1.992 0 1.206-.597 1.992-1.546 1.992ZM154.418 64.597c-.156.942-1.067 1.636-2.24 1.636-1.542 0-2.479-1.072-2.479-2.764 0-1.692.952-2.805 2.437-2.805 1.486 0 2.35 1.057 2.35 2.686v.34h-3.86v.052c0 1.03.607 1.707 1.573 1.707.685 0 1.186-.346 1.335-.855h.884v.003Zm-3.789-1.61h2.924c-.019-.9-.584-1.541-1.434-1.541s-1.434.647-1.49 1.541Z" clip-rule="evenodd"/><path fill="#fff" d="M156.337 58.67h-.901v7.468h.901V58.67ZM159.575 62.403c0-2.345 1.32-3.855 3.363-3.855 1.624 0 2.861.989 3.1 2.479h-.943c-.238-.98-1.09-1.62-2.157-1.62-1.459 0-2.406 1.182-2.406 2.996s.938 3.002 2.411 3.002c1.098 0 1.885-.528 2.152-1.44h.943c-.341 1.477-1.449 2.3-3.1 2.3-2.06 0-3.363-1.496-3.363-3.86v-.002Z"/><path fill="#fff" fill-rule="evenodd" d="M168.728 63.043c-1.241.073-1.95.653-1.95 1.573v.002c0 .967.718 1.615 1.79 1.615.725 0 1.407-.404 1.729-1.02h.022v.925h.854v-3.72c0-1.07-.786-1.754-2.06-1.754-1.273 0-2.072.716-2.133 1.646h.869c.115-.528.548-.855 1.242-.855.745 0 1.179.392 1.179 1.05v.45l-1.542.088Zm1.544.611v.438c0 .777-.65 1.371-1.5 1.371-.647 0-1.076-.34-1.076-.847 0-.506.414-.828 1.137-.874l1.439-.088Z" clip-rule="evenodd"/><path fill="#fff" d="M176.735 66.138h-.855v-.874h-.019c-.322.62-.879.967-1.707.967-1.174 0-1.863-.76-1.863-1.983v-3.492h.901v3.334c0 .874.409 1.347 1.242 1.347.874 0 1.402-.602 1.402-1.517v-3.161h.901v5.381l-.002-.002ZM180.115 61.455c.791 0 1.246.483 1.375 1.067h.88c-.115-.967-.916-1.858-2.263-1.858-1.485 0-2.474 1.05-2.474 2.783 0 1.734.994 2.784 2.484 2.784 1.223 0 2.123-.755 2.262-1.827h-.884c-.155.648-.635 1.035-1.371 1.035-.93 0-1.573-.772-1.573-1.992s.631-1.992 1.564-1.992Z"/><path fill="#fff" fill-rule="evenodd" d="M182.99 64.616c0-.92.709-1.5 1.951-1.573l1.541-.088v-.45c0-.658-.433-1.05-1.178-1.05-.694 0-1.128.327-1.242.855h-.869c.06-.93.859-1.646 2.133-1.646 1.273 0 2.06.684 2.06 1.753v3.721h-.855v-.925h-.022c-.321.616-1.003 1.02-1.729 1.02-1.071 0-1.79-.648-1.79-1.615v-.002Zm3.492-.523v-.439l-1.439.088c-.723.046-1.137.368-1.137.874 0 .507.429.847 1.076.847.85 0 1.5-.594 1.5-1.37Z" clip-rule="evenodd"/><path fill="#fff" d="M76.954 48.608c0-.355.293-.64.64-.64a.65.65 0 0 1 .649.64c0 .356-.29.64-.648.64a.64.64 0 0 1-.64-.64ZM77.081 50.288h1.032v6.173h-1.032v-6.173ZM83.965 51.986c-.049-1.045-.986-1.804-2.261-1.805-1.358 0-2.302.753-2.302 1.81 0 .842.533 1.4 1.619 1.68l1.086.28c.694.182.95.42.95.86 0 .557-.517.912-1.354.912-.838 0-1.325-.345-1.437-.986h-1.032c.107 1.093 1.05 1.829 2.403 1.829 1.442 0 2.457-.76 2.457-1.834 0-.908-.45-1.358-1.697-1.673l-.955-.23c-.701-.179-1.027-.466-1.027-.892 0-.538.491-.913 1.251-.913.76 0 1.242.367 1.313.962h.986ZM86.526 48.798v1.49h1.199v.85h-1.198v3.667c0 .565.238.819.764.819.12 0 .356-.018.426-.03v.867c-.124.03-.409.046-.652.046-1.135 0-1.573-.462-1.573-1.65v-3.721h-.92v-.85h.92v-1.49h1.032l.002.002Z"/><path fill="#fff" fill-rule="evenodd" d="M91.185 56.568c1.346 0 2.391-.793 2.569-1.875l.002-.002h-1.015c-.173.582-.748.979-1.532.979-1.11 0-1.804-.777-1.804-1.958v-.059h4.427v-.392c0-1.87-.991-3.08-2.696-3.08-1.704 0-2.795 1.276-2.795 3.217 0 1.94 1.076 3.17 2.844 3.17Zm1.578-3.72H89.41c.065-1.026.735-1.768 1.709-1.768.974 0 1.62.735 1.644 1.767Z" clip-rule="evenodd"/><path fill="#fff" d="M94.869 50.288h.005v6.17h1.032V52.59c0-.854.594-1.495 1.413-1.495.764 0 1.263.487 1.263 1.23v4.137h1.033v-3.923c0-.835.582-1.441 1.395-1.441.813 0 1.281.499 1.281 1.341v4.026h1.032v-4.262c0-1.222-.789-2.018-2.011-2.018-.867 0-1.592.44-1.936 1.176h-.024c-.268-.75-.904-1.176-1.734-1.176s-1.46.438-1.75 1.09h-.025v-.986h-.97v-.002l-.004.002Z"/><path fill="#fff" fill-rule="evenodd" d="M106.618 52.91c-1.424.084-2.238.748-2.238 1.805l-.002.003c0 1.108.823 1.85 2.053 1.85.83 0 1.614-.462 1.982-1.168h.024v1.061h.979v-4.268c0-1.228-.904-2.012-2.362-2.012-1.459 0-2.374.818-2.445 1.887h.998c.132-.603.629-.978 1.425-.978.855 0 1.354.45 1.354 1.205v.516l-1.768.1Zm1.77.702v.504c0 .891-.747 1.573-1.721 1.573-.743 0-1.235-.392-1.235-.974s.475-.95 1.305-1.003l1.651-.1ZM112.92 53.376c0-1.936 1.062-3.192 2.618-3.192.883 0 1.597.433 1.965 1.11h.024V47.9h1.032v8.564h-.986v-1.045h-.017c-.397.713-1.103 1.152-1.994 1.152-1.573 0-2.642-1.26-2.642-3.193v-.002Zm1.057 0c0 1.4.689 2.284 1.78 2.284 1.091 0 1.775-.901 1.775-2.284 0-1.383-.714-2.284-1.775-2.284-1.062 0-1.78.891-1.78 2.284ZM122.492 56.568c1.347 0 2.391-.793 2.569-1.875l.002-.002h-1.015c-.173.582-.748.979-1.532.979-1.11 0-1.804-.777-1.804-1.958v-.059h4.427v-.392c0-1.87-.991-3.08-2.696-3.08-1.704 0-2.795 1.276-2.795 3.217 0 1.94 1.076 3.17 2.844 3.17Zm1.578-3.72h-3.353c.066-1.026.735-1.768 1.709-1.768.974 0 1.62.735 1.644 1.767Z" clip-rule="evenodd"/><path fill="#fff" d="M128.597 48.608c0-.355.292-.64.64-.64a.65.65 0 0 1 .648.64c0 .356-.29.64-.648.64a.64.64 0 0 1-.64-.64ZM128.721 50.288h1.032v6.173h-1.032v-6.173ZM132.123 50.288h-.977v6.173h1.033v-3.633c0-1.045.659-1.734 1.609-1.734s1.42.548 1.42 1.544v3.823h1.032v-4.005c0-1.4-.781-2.272-2.135-2.272-.955 0-1.615.426-1.958 1.09h-.024v-.986ZM137.024 51.138h.857v5.32h1.033v-5.322h1.259v-.85h-1.264v-.682c0-.611.268-.908.826-.908.172 0 .345.02.469.036v-.837a4.678 4.678 0 0 0-.628-.047c-1.139 0-1.692.565-1.692 1.751v.69h-.86v.85Z"/><path fill="#fff" fill-rule="evenodd" d="M143.504 50.184c-1.709 0-2.861 1.222-2.861 3.192 0 1.963 1.159 3.192 2.861 3.192 1.702 0 2.854-1.222 2.854-3.192 0-1.97-1.145-3.192-2.854-3.192Zm-.003.908c1.091 0 1.805.83 1.805 2.284 0 1.454-.714 2.284-1.805 2.284-1.09 0-1.809-.83-1.809-2.284 0-1.454.719-2.284 1.809-2.284Z" clip-rule="evenodd"/><path fill="#fff" d="M147.395 50.288h.974v1.008h.024a1.513 1.513 0 0 1 1.496-1.115c.151 0 .287.022.375.035l.041.007v1.003a2.11 2.11 0 0 0-.553-.059c-.801 0-1.324.575-1.324 1.45v3.844h-1.033v-6.173ZM151.143 50.288h-.005l.005-.002v.002ZM151.143 56.459v-6.17h.969v.986h.024c.29-.653.921-1.091 1.751-1.091.83 0 1.466.426 1.734 1.176h.024c.343-.736 1.069-1.176 1.936-1.176 1.222 0 2.011.796 2.011 2.018v4.262h-1.032v-4.026c0-.842-.468-1.341-1.281-1.341s-1.395.606-1.395 1.441v3.923h-1.033v-4.137c0-.743-.499-1.23-1.264-1.23-.818 0-1.412.64-1.412 1.495v3.87h-1.032Z"/><path fill="#fff" fill-rule="evenodd" d="M160.651 54.715c0-1.057.814-1.721 2.238-1.804l1.768-.1v-.516c0-.755-.499-1.206-1.354-1.206-.796 0-1.293.376-1.424.98h-.999c.071-1.07.987-1.888 2.445-1.888 1.459 0 2.362.784 2.362 2.012v4.268h-.979V55.4h-.024c-.368.706-1.152 1.168-1.982 1.168-1.23 0-2.053-.742-2.053-1.85l.002-.003Zm4.006-.599v-.504l-1.651.1c-.83.054-1.305.421-1.305 1.003 0 .582.492.974 1.235.974.974 0 1.721-.682 1.721-1.573Z" clip-rule="evenodd"/><path fill="#fff" d="M169.542 51.09c.908 0 1.429.552 1.578 1.222h1.01c-.129-1.11-1.049-2.13-2.593-2.13-1.702 0-2.837 1.204-2.837 3.191 0 1.988 1.14 3.193 2.849 3.193 1.4 0 2.433-.865 2.593-2.094h-1.015c-.178.74-.731 1.186-1.573 1.186-1.069 0-1.804-.884-1.804-2.285 0-1.4.723-2.283 1.792-2.283ZM173.017 48.608c0-.355.292-.64.64-.64a.65.65 0 0 1 .648.64c0 .356-.29.64-.648.64a.64.64 0 0 1-.64-.64ZM174.173 50.288v6.173h-1.032v-6.173h1.032ZM182.993 50.288v.987h.024c.344-.665 1.003-1.091 1.958-1.091 1.354 0 2.136.871 2.136 2.272v4.005h-1.033v-3.823c0-.996-.47-1.544-1.42-1.544-.949 0-1.609.69-1.609 1.734v3.633h-1.033v-6.173h.977Z"/><defs><linearGradient id="a" x1="26.868" x2="54.46" y1="20.764" y2="20.764" gradientUnits="userSpaceOnUse"><stop stop-color="#179AE2"/><stop offset=".2" stop-color="#17A8E2"/><stop offset=".58" stop-color="#17CEE2"/><stop offset="1" stop-color="#17FFE2"/></linearGradient><linearGradient id="b" x1="0" x2="7.984" y1="20.79" y2="20.79" gradientUnits="userSpaceOnUse"><stop stop-color="#179AE2"/><stop offset=".2" stop-color="#17A8E2"/><stop offset=".58" stop-color="#17CEE2"/><stop offset="1" stop-color="#17FFE2"/></linearGradient></defs></svg>