<svg xmlns="http://www.w3.org/2000/svg" fill="none" viewBox="0 0 188 107"><path fill="#F1273F" d="m152 51-14.3 25.23-14.7 24.999-29 .231-29-.231L50.3 76.23 36 51l14.3-25.23L65 .77l29-.23 29 .23 14.7 25L152 51ZM187.091 86.469c.56.944.56 2.118 0 3.062l-4.451 7.499-4.268 7.604a3.002 3.002 0 0 1-2.652 1.531l-8.72-.105-8.72.105a3.002 3.002 0 0 1-2.652-1.531l-4.268-7.604-4.451-7.499a3.001 3.001 0 0 1 0-3.062l4.451-7.499 4.268-7.604a3.001 3.001 0 0 1 2.652-1.531l8.72.105 8.72-.105a3.001 3.001 0 0 1 2.652 1.531l4.268 7.604 4.451 7.499ZM41.091 89.531a3 3 0 0 0 0-3.062l-4.45-7.499-4.27-7.604a3 3 0 0 0-2.652-1.531L21 69.94l-8.72-.105a3 3 0 0 0-2.652 1.531L5.36 78.97.909 86.469a3 3 0 0 0 0 3.062l4.45 7.499 4.27 7.604a3 3 0 0 0 2.652 1.531L21 106.06l8.72.105a3 3 0 0 0 2.652-1.531l4.268-7.604 4.451-7.499Z"/><path fill="#fff" d="m67.913 54.92.744 10.776h-4.464l.744-10.776h2.976Zm-1.488-6.024c.688 0 1.24.216 1.656.648.432.432.648.952.648 1.56 0 .592-.216 1.096-.648 1.512-.416.416-.968.624-1.656.624-.672 0-1.224-.208-1.656-.624a2.021 2.021 0 0 1-.648-1.512c0-.608.216-1.128.648-1.56.432-.432.984-.648 1.656-.648ZM79.339 62.288c-2.384 0-4.248-.664-5.592-1.992-1.344-1.328-2.016-3.224-2.016-5.688V45.2h3.888v9.264c0 1.6.328 2.752.984 3.456.656.704 1.576 1.056 2.76 1.056 1.184 0 2.104-.352 2.76-1.056.656-.704.984-1.856.984-3.456V45.2h3.84v9.408c0 2.464-.672 4.36-2.016 5.688-1.344 1.328-3.208 1.992-5.592 1.992ZM98.157 62.192c-1.088 0-2.04-.24-2.856-.72-.816-.48-1.456-1.208-1.92-2.184-.448-.992-.672-2.24-.672-3.744 0-1.52.216-2.768.648-3.744.432-.976 1.056-1.704 1.872-2.184.816-.48 1.792-.72 2.928-.72 1.216 0 2.304.28 3.264.84a5.907 5.907 0 0 1 2.304 2.304c.576.992.864 2.16.864 3.504 0 1.36-.288 2.536-.864 3.528a5.907 5.907 0 0 1-2.304 2.304c-.96.544-2.048.816-3.264.816Zm-7.632 4.464V49.088H94.1v2.64l-.072 3.84.24 3.816v7.272h-3.744Zm6.984-7.536c.624 0 1.176-.144 1.656-.432a3.096 3.096 0 0 0 1.176-1.224c.304-.544.456-1.184.456-1.92 0-.752-.152-1.392-.456-1.92a3.096 3.096 0 0 0-1.176-1.224c-.48-.288-1.032-.432-1.656-.432-.624 0-1.184.144-1.68.432a3.095 3.095 0 0 0-1.176 1.224c-.288.528-.432 1.168-.432 1.92 0 .736.144 1.376.432 1.92.288.528.68.936 1.176 1.224a3.284 3.284 0 0 0 1.68.432ZM111.439 62.192c-1.104 0-2.168-.128-3.192-.384-1.008-.272-1.808-.608-2.4-1.008l1.248-2.688c.592.368 1.288.672 2.088.912a9.042 9.042 0 0 0 2.4.336c.864 0 1.472-.104 1.824-.312.368-.208.552-.496.552-.864 0-.304-.144-.528-.432-.672-.272-.16-.64-.28-1.104-.36a54.25 54.25 0 0 0-1.536-.24 21.417 21.417 0 0 1-1.656-.312 5.949 5.949 0 0 1-1.536-.624 3.239 3.239 0 0 1-1.128-1.104c-.272-.464-.408-1.064-.408-1.8 0-.816.232-1.536.696-2.16.48-.624 1.168-1.112 2.064-1.464.896-.368 1.968-.552 3.216-.552.88 0 1.776.096 2.688.288.912.192 1.672.472 2.28.84l-1.248 2.664a6.07 6.07 0 0 0-1.896-.744 8.1 8.1 0 0 0-1.824-.216c-.832 0-1.44.112-1.824.336-.384.224-.576.512-.576.864 0 .32.136.56.408.72.288.16.664.288 1.128.384.464.096.968.184 1.512.264.56.064 1.12.168 1.68.312.56.144 1.064.352 1.512.624.464.256.84.616 1.128 1.08.288.448.432 1.04.432 1.776 0 .8-.24 1.512-.72 2.136-.48.608-1.176 1.088-2.088 1.44-.896.352-1.992.528-3.288.528ZM120.109 56.168l-.744-10.968h4.464l-.744 10.968h-2.976Zm1.488 6.024c-.672 0-1.224-.216-1.656-.648a2.1 2.1 0 0 1-.648-1.536c0-.608.216-1.112.648-1.512.432-.416.984-.624 1.656-.624.688 0 1.24.208 1.656.624.432.4.648.904.648 1.512a2.1 2.1 0 0 1-.648 1.536c-.416.432-.968.648-1.656.648ZM153.957 88.46l.372 5.388h-2.232l.372-5.388h1.488Zm-.744-3.012c.344 0 .62.108.828.324.216.216.324.476.324.78 0 .296-.108.548-.324.756-.208.208-.484.312-.828.312-.336 0-.612-.104-.828-.312a1.01 1.01 0 0 1-.324-.756c0-.304.108-.564.324-.78.216-.216.492-.324.828-.324ZM159.669 92.144c-1.192 0-2.124-.332-2.796-.996-.672-.664-1.008-1.612-1.008-2.844V83.6h1.944v4.632c0 .8.164 1.376.492 1.728.328.352.788.528 1.38.528.592 0 1.052-.176 1.38-.528.328-.352.492-.928.492-1.728V83.6h1.92v4.704c0 1.232-.336 2.18-1.008 2.844-.672.664-1.604.996-2.796.996ZM169.078 92.096c-.544 0-1.02-.12-1.428-.36-.408-.24-.728-.604-.96-1.092-.224-.496-.336-1.12-.336-1.872 0-.76.108-1.384.324-1.872.216-.488.528-.852.936-1.092.408-.24.896-.36 1.464-.36.608 0 1.152.14 1.632.42.488.272.872.656 1.152 1.152.288.496.432 1.08.432 1.752 0 .68-.144 1.268-.432 1.764-.28.496-.664.88-1.152 1.152a3.252 3.252 0 0 1-1.632.408Zm-3.816 2.232v-8.784h1.788v1.32l-.036 1.92.12 1.908v3.636h-1.872Zm3.492-3.768c.312 0 .588-.072.828-.216.248-.144.444-.348.588-.612.152-.272.228-.592.228-.96 0-.376-.076-.696-.228-.96a1.548 1.548 0 0 0-.588-.612 1.578 1.578 0 0 0-.828-.216c-.312 0-.592.072-.84.216a1.548 1.548 0 0 0-.588.612c-.144.264-.216.584-.216.96 0 .368.072.688.216.96.144.264.34.468.588.612.248.144.528.216.84.216ZM175.72 92.096a6.556 6.556 0 0 1-1.596-.192c-.504-.136-.904-.304-1.2-.504l.624-1.344a4.324 4.324 0 0 0 2.244.624c.432 0 .736-.052.912-.156.184-.104.276-.248.276-.432 0-.152-.072-.264-.216-.336-.136-.08-.32-.14-.552-.18-.232-.04-.488-.08-.768-.12-.272-.04-.548-.092-.828-.156a2.974 2.974 0 0 1-.768-.312 1.62 1.62 0 0 1-.564-.552c-.136-.232-.204-.532-.204-.9 0-.408.116-.768.348-1.08.24-.312.584-.556 1.032-.732.448-.184.984-.276 1.608-.276.44 0 .888.048 1.344.144.456.096.836.236 1.14.42l-.624 1.332a3.035 3.035 0 0 0-.948-.372 4.05 4.05 0 0 0-.912-.108c-.416 0-.72.056-.912.168-.192.112-.288.256-.288.432 0 .16.068.28.204.36.144.08.332.144.564.192.232.048.484.092.756.132.28.032.56.084.84.156.28.072.532.176.756.312.232.128.42.308.564.54.144.224.216.52.216.888 0 .4-.12.756-.36 1.068-.24.304-.588.544-1.044.72-.448.176-.996.264-1.644.264ZM180.055 89.084l-.372-5.484h2.232l-.372 5.484h-1.488Zm.744 3.012c-.336 0-.612-.108-.828-.324a1.05 1.05 0 0 1-.324-.768c0-.304.108-.556.324-.756.216-.208.492-.312.828-.312.344 0 .62.104.828.312.216.2.324.452.324.756 0 .296-.108.552-.324.768-.208.216-.484.324-.828.324ZM7.957 88.46l.372 5.388H6.097l.372-5.388h1.488Zm-.744-3.012c.344 0 .62.108.828.324.216.216.324.476.324.78 0 .296-.108.548-.324.756-.208.208-.484.312-.828.312-.336 0-.612-.104-.828-.312a1.01 1.01 0 0 1-.324-.756c0-.304.108-.564.324-.78.216-.216.492-.324.828-.324ZM13.67 92.144c-1.193 0-2.125-.332-2.797-.996-.672-.664-1.008-1.612-1.008-2.844V83.6h1.944v4.632c0 .8.164 1.376.492 1.728.328.352.788.528 1.38.528.592 0 1.052-.176 1.38-.528.328-.352.492-.928.492-1.728V83.6h1.92v4.704c0 1.232-.336 2.18-1.008 2.844-.672.664-1.604.996-2.796.996ZM23.078 92.096c-.544 0-1.02-.12-1.428-.36-.408-.24-.728-.604-.96-1.092-.224-.496-.336-1.12-.336-1.872 0-.76.108-1.384.324-1.872.216-.488.528-.852.936-1.092.408-.24.896-.36 1.464-.36.608 0 1.152.14 1.632.42.488.272.872.656 1.152 1.152.288.496.432 1.08.432 1.752 0 .68-.144 1.268-.432 1.764-.28.496-.664.88-1.152 1.152a3.252 3.252 0 0 1-1.632.408Zm-3.816 2.232v-8.784h1.788v1.32l-.036 1.92.12 1.908v3.636h-1.872Zm3.492-3.768c.312 0 .588-.072.828-.216.248-.144.444-.348.588-.612.152-.272.228-.592.228-.96 0-.376-.076-.696-.228-.96a1.548 1.548 0 0 0-.588-.612 1.578 1.578 0 0 0-.828-.216c-.312 0-.592.072-.84.216a1.548 1.548 0 0 0-.588.612c-.144.264-.216.584-.216.96 0 .368.072.688.216.96.144.264.34.468.588.612.248.144.528.216.84.216ZM29.72 92.096a6.556 6.556 0 0 1-1.596-.192c-.504-.136-.904-.304-1.2-.504l.624-1.344a4.324 4.324 0 0 0 2.244.624c.432 0 .736-.052.912-.156.184-.104.276-.248.276-.432 0-.152-.072-.264-.216-.336-.136-.08-.32-.14-.552-.18-.232-.04-.488-.08-.768-.12-.272-.04-.548-.092-.828-.156a2.974 2.974 0 0 1-.768-.312 1.62 1.62 0 0 1-.564-.552c-.136-.232-.204-.532-.204-.9 0-.408.116-.768.348-1.08.24-.312.584-.556 1.032-.732.448-.184.984-.276 1.608-.276.44 0 .888.048 1.344.144.456.096.836.236 1.14.42l-.624 1.332a3.035 3.035 0 0 0-.948-.372 4.05 4.05 0 0 0-.912-.108c-.416 0-.72.056-.912.168-.192.112-.288.256-.288.432 0 .16.068.28.204.36.144.08.332.144.564.192.232.048.484.092.756.132.28.032.56.084.84.156.28.072.532.176.756.312.232.128.42.308.564.54.144.224.216.52.216.888 0 .4-.12.756-.36 1.068-.24.304-.588.544-1.044.72-.448.176-.996.264-1.644.264ZM34.055 89.084l-.372-5.484h2.232l-.372 5.484h-1.488Zm.744 3.012c-.336 0-.612-.108-.828-.324a1.05 1.05 0 0 1-.324-.768c0-.304.108-.556.324-.756.216-.208.492-.312.828-.312.344 0 .62.104.828.312.216.2.324.452.324.756 0 .296-.108.552-.324.768-.208.216-.484.324-.828.324Z"/></svg>