<svg xmlns="http://www.w3.org/2000/svg" fill="none" viewBox="0 0 174 103"><path fill="#DBF22E" d="M83.125 2.628c.853-2.855 4.897-2.855 5.75 0l8.742 29.284a3 3 0 0 0 2.947 2.14l30.552-.734c2.979-.071 4.229 3.775 1.776 5.468L107.744 56.15a3.002 3.002 0 0 0-1.126 3.464l10.14 28.83c.989 2.811-2.283 5.188-4.652 3.38L87.821 73.27a3 3 0 0 0-3.642 0L59.894 91.823c-2.369 1.81-5.64-.568-4.652-3.38l10.14-28.829a3 3 0 0 0-1.126-3.464L39.108 38.786c-2.453-1.693-1.203-5.54 1.776-5.468l30.552.735a3 3 0 0 0 2.947-2.141l8.742-29.284ZM151.161 65.314c.924-2.708 4.754-2.708 5.678 0l3.304 9.674c.3.879.99 1.57 1.869 1.87l9.674 3.303c2.708.924 2.708 4.754 0 5.678l-9.674 3.304c-.879.3-1.569.99-1.869 1.87l-3.304 9.673c-.924 2.708-4.754 2.708-5.678 0l-3.304-9.674c-.3-.879-.99-1.57-1.869-1.87l-9.674-3.303c-2.708-.924-2.708-4.754 0-5.678l9.674-3.304c.879-.3 1.569-.99 1.869-1.87l3.304-9.673ZM17.161 65.314c.924-2.708 4.753-2.708 5.678 0l3.304 9.674a3 3 0 0 0 1.87 1.87l9.673 3.303c2.708.924 2.708 4.754 0 5.678l-9.674 3.304a3 3 0 0 0-1.87 1.87l-3.303 9.673c-.924 2.708-4.753 2.708-5.678 0l-3.304-9.674a3 3 0 0 0-1.87-1.87L2.315 85.84c-2.708-.924-2.708-4.754 0-5.678l9.674-3.304a3 3 0 0 0 1.87-1.87l3.303-9.673Z"/></svg>